# xmcd CD database file
#
# Track frame offsets:
#	150
#	24867
#	38292
#	55480
#	72252
#	90190
#	112017
#	129202
#	146217
#	165100
#	180855
#	199825
#	222242
#	238847
#
# Disc length: 3343 seconds
#
# Revision: 7
# Processed by: cddbd v1.5.2PL0 Copyright (c) Steve Scherf et al.
# Submitted via: CDex 1.70beta2
#
DISCID=b00d0d0e
DTITLE=中島みゆき - Singles (Disc3)
DYEAR=1900
DGENRE=
TTITLE0=りばいばる
TTITLE1=ピエロ
TTITLE2=おもいで河
TTITLE3=ほうせんか
TTITLE4=わかれうた
TTITLE5=ホームにて
TTITLE6=夜風の中から
TTITLE7=忘れられるものならば
TTITLE8=こんばんわ
TTITLE9=強い風はいつも
TTITLE10=時代
TTITLE11=傷ついた翼
TTITLE12=アザミ嬢のララバイ
TTITLE13=さよならさよなら
EXTD=
EXTT0=
EXTT1=
EXTT2=
EXTT3=
EXTT4=
EXTT5=
EXTT6=
EXTT7=
EXTT8=
EXTT9=
EXTT10=
EXTT11=
EXTT12=
EXTT13=
PLAYORDER=
